# xmcd
#
# Track frame offsets: 
#        150
#        12937
#        22955
#        38060
#        49125
#        59265
#        69302
#        81645
#        92267
#        101945
#        111047
#        122890
#
# Disc length: 1771 seconds
#
# Revision: 2
# Processed by: cddbd v1.5.2PL0 Copyright (c) Steve Scherf et al.
# Submitted via: ExactAudioCopy v0.99pb5
#
DISCID=9806e90c
DTITLE=Patsy Cline - Showcase
DYEAR=1988
DGENRE=
TTITLE0=I Fall To Pieces
TTITLE1=Foolin' 'Round
TTITLE2=The Wayward Wind
TTITLE3=South Of The Border
TTITLE4=I Love You So Much It Hurts
TTITLE5=Seven Lonely Days
TTITLE6=Crazy
TTITLE7=San Antonio Rose
TTITLE8=True Love
TTITLE9=Walkin' After Midnight
TTITLE10=A Poor Man's Roses
TTITLE11=Haver You Ever Been Lonely
EXTD=
EXTT0=
EXTT1=
EXTT2=
EXTT3=
EXTT4=
EXTT5=
EXTT6=
EXTT7=
EXTT8=
EXTT9=
EXTT10=
EXTT11=
PLAYORDER=
